# xmcd CD database file
#
# Track frame offsets:
#	150
#	11158
#	24497
#	36662
#	50870
#	63378
#	77106
#	90561
#	101504
#	113377
#	124457
#	134786
#	146276
#	156215
#	168559
#
# Disc length: 2406 seconds
#
# Revision: 2
# Processed by: cddbd v1.5.2PL0 Copyright (c) Steve Scherf et al.
# Submitted via: CDex 1.70beta2
#
DISCID=d409640f
DTITLE=Jimmy Witherspoon - The Ultimate Jazz Archive Set 16
DYEAR=1950
DGENRE=Blues
TTITLE0=I'm Just A Lady's Man
TTITLE1=Ther Ain't Nothing Better
TTITLE2=Love Me Baby
TTITLE3=Love And Friendship
TTITLE4=Good Jumping AKA
TTITLE5=I'm Just A Country Boy
TTITLE6=Slow Your Speed
TTITLE7=Geneva Blues AKA Evel Woman
TTITLE8=I'm Just Wandering (Part 1)
TTITLE9=I'm Just Wandering (Part 2)
TTITLE10=Baby, Baby
TTITLE11=Sweet Lovin' Baby
TTITLE12=The Doctor Knows His Business AKA Doctor Blues
TTITLE13=Rain, Rain, Rain
TTITLE14=Thelma Lee Blues
EXTD=YEAR: 1950
EXTT0=
EXTT1=
EXTT2=
EXTT3=
EXTT4=
EXTT5=
EXTT6=
EXTT7=
EXTT8=
EXTT9=
EXTT10=
EXTT11=
EXTT12=
EXTT13=
EXTT14=
PLAYORDER=
